<?xml version="1.0" standalone="no"?>
<!DOCTYPE svg PUBLIC "-//W3C//DTD SVG 20010904//EN"
 "http://www.w3.org/TR/2001/REC-SVG-20010904/DTD/svg10.dtd">
<svg version="1.0" xmlns="http://www.w3.org/2000/svg"
 width="864.000000pt" height="456.000000pt" viewBox="0 0 864.000000 456.000000"
 preserveAspectRatio="xMidYMid meet">

<g transform="translate(0.000000,456.000000) scale(0.100000,-0.100000)"
fill="#0059fe" stroke="none">
<path d="M3855 4543 c-22 -1 -76 -5 -121 -9 -44 -3 -86 -9 -93 -13 -10 -7 -9
-25 3 -92 9 -46 39 -221 67 -389 28 -168 55 -309 59 -313 30 -33 760 204 760
246 0 28 -287 344 -438 483 -113 104 -99 98 -237 87z"/>
<path d="M4434 4395 c63 -68 152 -170 197 -225 45 -55 86 -100 92 -100 26 0
307 184 314 206 4 11 -151 88 -262 129 -92 34 -241 77 -315 91 -14 3 -43 9
-65 14 -81 19 -80 14 39 -115z"/>
<path d="M3398 4474 c-4 -3 -12 -7 -20 -8 -84 -17 -110 -30 -137 -70 -79 -116
-243 -443 -320 -636 l-49 -125 72 -3 c119 -6 606 35 623 52 2 2 -10 84 -27
182 -33 198 -78 470 -86 524 -11 77 -16 90 -33 90 -10 0 -20 -3 -23 -6z"/>
<path d="M5530 4309 c52 -40 144 -121 204 -179 429 -416 690 -942 767 -1545
19 -145 16 -483 -5 -634 -97 -711 -464 -1326 -1051 -1758 l-30 -22 75 20 c257
69 358 100 554 171 422 153 782 324 1163 551 557 333 1041 740 1288 1082 70
96 126 210 132 268 21 189 -357 629 -872 1015 -482 362 -1038 667 -1620 891
-133 51 -565 185 -665 206 -31 7 -24 -1 60 -66z m1795 -1454 c51 -25 115 -89
140 -140 29 -60 33 -180 7 -238 -27 -61 -86 -124 -146 -155 -68 -35 -178 -37
-247 -5 -60 27 -125 92 -152 152 -32 69 -30 179 5 247 31 58 92 118 152 145
55 26 182 22 241 -6z"/>
<path d="M2870 4261 c-141 -80 -333 -221 -434 -319 -50 -49 -68 -75 -100 -151
-21 -50 -36 -97 -33 -104 5 -13 122 -31 285 -43 71 -6 82 -5 82 10 0 38 122
328 222 525 32 63 58 116 58 118 0 7 -18 -1 -80 -36z"/>
<path d="M5114 4084 c-49 -36 -131 -91 -181 -122 -51 -32 -93 -60 -93 -64 0
-5 28 -52 63 -105 86 -132 121 -190 145 -238 10 -22 40 -82 66 -133 25 -50 46
-97 46 -102 0 -6 4 -10 10 -10 24 0 199 136 360 279 l45 40 -29 53 c-42 77
-151 242 -215 327 -31 40 -66 88 -79 107 -12 19 -28 34 -36 34 -7 0 -53 -30
-102 -66z"/>
<path d="M125 3882 c-73 -34 -123 -117 -112 -185 7 -46 48 -239 101 -477 26
-113 60 -268 77 -345 16 -77 50 -228 74 -335 66 -290 65 -261 10 -495 -23 -97
-58 -257 -85 -380 -31 -146 -77 -354 -125 -570 -37 -163 -54 -263 -51 -288 14
-117 149 -192 280 -156 37 10 108 62 888 652 158 119 290 217 295 217 4 0 29
-21 55 -47 l48 -47 -21 70 c-38 130 -78 309 -96 424 -25 164 -25 567 1 735 15
100 76 364 101 440 4 12 -9 3 -33 -22 -22 -24 -47 -43 -55 -43 -9 0 -253 179
-542 398 -289 218 -549 413 -577 432 -45 30 -60 35 -122 38 -53 2 -81 -2 -111
-16z"/>
<path d="M4595 3780 c-146 -75 -499 -195 -691 -235 -45 -10 -87 -21 -94 -25
-10 -6 -8 -34 8 -131 12 -68 38 -224 59 -346 l37 -223 25 0 c69 0 396 87 564
149 172 64 477 206 491 229 5 8 -113 249 -152 312 -12 19 -35 60 -51 90 -44
82 -124 194 -141 198 -8 1 -33 -7 -55 -18z"/>
<path d="M5820 3595 c0 -4 24 -59 54 -124 122 -260 207 -525 251 -781 9 -52
18 -96 20 -98 6 -7 56 54 61 75 6 22 -8 89 -46 233 -30 110 -96 281 -152 394
-65 129 -188 327 -188 301z"/>
<path d="M2217 3483 c-8 -14 -79 -255 -99 -338 -28 -118 -48 -227 -43 -235 10
-16 390 -109 400 -98 3 3 12 57 20 119 17 128 56 327 85 433 11 38 17 73 12
77 -4 4 -47 10 -97 14 -80 5 -115 10 -242 30 -17 3 -34 2 -36 -2z"/>
<path d="M3425 3464 c-60 -7 -220 -16 -355 -20 -160 -4 -249 -10 -257 -18 -33
-32 -147 -595 -130 -640 14 -37 642 -47 926 -15 l113 13 -5 35 c-5 30 -77 455
-105 611 -7 43 -9 45 -42 47 -19 0 -84 -5 -145 -13z"/>
<path d="M5570 3363 c-47 -42 -138 -114 -202 -161 -65 -46 -118 -88 -118 -93
0 -4 16 -52 35 -106 85 -244 155 -643 155 -895 0 -53 4 -88 10 -88 28 0 227
137 379 259 51 42 103 83 114 92 18 15 20 24 13 100 -7 84 -44 291 -72 404
-49 196 -192 566 -219 564 -5 0 -48 -34 -95 -76z"/>
<path d="M1931 3263 c-20 -38 -101 -244 -101 -257 0 -12 28 -25 52 -26 3 0 9
24 13 53 4 28 18 94 31 146 23 93 25 121 5 84z"/>
<path d="M4955 2951 c-248 -129 -565 -239 -859 -300 -75 -15 -138 -30 -141
-33 -3 -3 25 -182 61 -399 36 -217 68 -407 70 -424 13 -88 38 -221 44 -228 7
-8 212 30 355 68 267 69 419 120 618 207 115 51 138 64 144 86 7 30 -4 301
-18 432 -12 105 -49 294 -80 410 -31 114 -72 240 -79 239 -3 0 -54 -27 -115
-58z"/>
<path d="M1765 2789 c-14 -42 -38 -213 -49 -348 -10 -125 -10 -189 1 -321 7
-91 17 -187 22 -215 5 -27 13 -65 16 -84 6 -29 15 -37 72 -63 36 -16 67 -27
69 -25 3 3 -2 35 -10 73 -52 243 -70 565 -45 836 12 132 10 140 -43 153 -19 5
-29 3 -33 -6z"/>
<path d="M2036 2668 c-3 -18 -8 -100 -12 -183 -10 -240 30 -601 89 -807 11
-36 17 -42 57 -54 60 -18 343 -81 403 -90 l47 -6 -10 27 c-17 44 -88 334 -100
405 -27 162 -40 308 -40 460 -1 91 -4 171 -8 177 -4 6 -54 21 -112 33 -58 12
-145 33 -195 46 -49 13 -95 24 -101 24 -7 0 -14 -15 -18 -32z"/>
<path d="M3645 2580 c-180 -24 -483 -33 -700 -20 -121 7 -233 13 -250 14 l-30
1 -3 -65 c-2 -36 2 -132 8 -215 18 -245 59 -460 131 -691 l32 -102 71 -6 c182
-15 348 -17 541 -7 191 11 475 37 484 46 2 2 -24 165 -58 362 -34 197 -73 432
-89 523 -31 188 -20 175 -137 160z"/>
<path d="M6203 2348 l-31 -33 -5 -220 c-5 -186 -17 -341 -42 -515 -4 -28 -1
-24 15 20 32 86 59 199 80 338 22 147 38 442 23 442 -5 0 -23 -15 -40 -32z"/>
<path d="M5915 2089 c-76 -61 -269 -190 -375 -250 -52 -29 -98 -58 -102 -63
-3 -5 -9 -46 -13 -90 -3 -45 -12 -117 -20 -161 -8 -44 -17 -102 -20 -130 -7
-53 -75 -322 -99 -390 -8 -22 -13 -41 -11 -43 7 -7 264 122 385 194 183 109
195 121 219 219 54 220 95 527 89 667 l-3 88 -50 -41z"/>
<path d="M5120 1634 c-129 -52 -321 -118 -460 -157 -137 -38 -437 -107 -469
-107 -11 0 -22 -4 -26 -9 -3 -6 4 -63 15 -128 33 -184 81 -464 87 -508 3 -22
10 -43 15 -46 31 -20 694 146 735 185 18 17 119 327 147 454 44 196 66 353 49
352 -5 -1 -46 -16 -93 -36z"/>
<path d="M1840 1525 c0 -16 68 -178 115 -274 62 -127 258 -421 272 -408 2 2
-23 58 -56 123 -67 135 -135 299 -176 424 -15 47 -31 89 -35 94 -5 4 -34 19
-64 31 -40 16 -56 19 -56 10z"/>
<path d="M2200 1402 c0 -40 139 -349 215 -479 121 -207 145 -243 168 -247 143
-31 473 -74 483 -64 3 4 -15 40 -42 80 -130 201 -231 386 -294 541 -34 83 -44
92 -105 96 -35 3 -325 58 -397 76 -17 4 -28 3 -28 -3z"/>
<path d="M3929 1336 c-2 -2 -31 -6 -64 -10 -33 -3 -103 -11 -155 -17 -52 -6
-250 -13 -440 -14 -325 -3 -345 -4 -342 -21 4 -19 88 -187 148 -294 44 -79
173 -268 227 -333 l40 -47 126 0 c151 0 370 14 510 31 l102 13 -6 36 c-4 19
-11 60 -15 90 -50 325 -92 555 -103 562 -13 9 -22 10 -28 4z"/>
<path d="M5665 933 c-91 -52 -278 -142 -392 -187 l-101 -41 -75 -145 c-69
-136 -133 -247 -179 -313 -11 -16 -18 -30 -15 -33 3 -3 43 14 88 37 199 100
387 231 542 379 83 78 94 93 148 206 33 67 59 124 59 128 0 10 -12 5 -75 -31z"/>
<path d="M4810 589 c-81 -24 -154 -41 -345 -80 -82 -16 -150 -31 -152 -32 -2
-3 54 -369 62 -405 5 -19 11 -23 28 -19 12 3 48 10 79 17 56 11 58 13 130 103
114 143 215 292 272 405 19 38 18 38 -74 11z"/>
<path d="M2757 437 c4 -9 39 -47 76 -87 72 -75 97 -89 314 -180 96 -40 260
-89 372 -109 34 -7 70 -15 80 -18 9 -3 -22 30 -69 72 -47 43 -132 127 -190
185 l-105 107 -130 7 c-123 7 -249 19 -323 32 -28 4 -32 3 -25 -9z"/>
<path d="M3945 435 c-60 -7 -175 -16 -255 -20 -80 -4 -151 -8 -157 -10 -27 -9
239 -242 395 -347 l75 -51 86 7 c47 4 88 10 90 12 3 3 -10 98 -30 212 l-34
207 -30 2 c-17 0 -79 -5 -140 -12z"/>
</g>
</svg>
